<!-- Generator: Adobe Illustrator 19.1.1, SVG Export Plug-In  -->
<svg version="1.1"
	 xmlns="http://www.w3.org/2000/svg" xmlns:xlink="http://www.w3.org/1999/xlink" xmlns:a="http://ns.adobe.com/AdobeSVGViewerExtensions/3.0/"
	 x="0px" y="0px" width="78.3px" height="91.9px" viewBox="0 0 78.3 91.9" style="enable-background:new 0 0 78.3 91.9;"
	 xml:space="preserve">
<style type="text/css">
	.st0{fill:#BCD0E2;}
	.st1{fill:#589ACA;}
	.st2{fill:#599BCA;}
	.st3{fill:#589BCA;}
	.st4{fill:#599BCB;}
	.st5{fill:#5C9DCC;}
	.st6{fill:#D0E3F0;}
	.st7{fill:#F5F8FB;}
	.st8{fill:#63A0CD;}
	.st9{fill:#F9FBFC;}
	.st10{fill:#F6F8FB;}
	.st11{fill:#CBDDEE;}
	.st12{fill:#F8FAFC;}
	.st13{fill:#F3F6FA;}
	.st14{fill:#E7EFF7;}
	.st15{fill:#E4EDF6;}
	.st16{fill:#EDF3F9;}
	.st17{fill:#E2EBF5;}
	.st18{fill:#9CBEDE;}
	.st19{fill:#B5CDE6;}
	.st20{fill:#FEFEFE;}
	.st21{fill:#FCFDFD;}
	.st22{fill:#FAFBFC;}
	.st23{fill:#5B9CCB;}
	.st24{fill:#6BA2CF;}
	.st25{fill:#86B0D5;}
	.st26{fill:#8CB3D6;}
	.st27{fill:#D3E0EB;}
	.st28{fill:#FBFCFD;}
	.st29{fill:#FDFEFE;}
	.st30{fill:#F7FAFC;}
</style>
<defs>
</defs>
<g>
	<path class="st0" d="M37.8,34.4c-1-2.7-2-5-2.8-7.4c-0.6-1.6-1.4-2.5-3.1-3c-3.2-1-6-2.8-8.6-5c-1.8-1.5-2.5-3.5-2.7-5.7
		c-0.2-2-0.1-4,0.6-5.9c1.5-3.5,4.5-5.2,7.9-6.1c6.8-1.7,13.6-1.6,20.3,0.6c3.3,1.1,6.2,3,7.3,6.6c1.5,4.8,0.1,9.9-4.2,12.7
		c-2.6,1.7-5.4,3-8.6,3.2c-1.4,0.1-2.1,0.7-2.6,2C40.3,28.9,39.1,31.5,37.8,34.4z"/>
	<path class="st1" d="M12.1,60.7c-3,0.1-6,0.2-9,0.4c-0.8,0.1-0.9-0.2-0.9-0.9c0-2.3-0.2-4.7-0.2-7c0.1-5.4-1-10.7-1.4-16
		c-0.3-3.5,0.2-6.8,1.4-10.1c1.6-4,4.8-5.8,8.8-6.6c5.6-1.1,10.2,0.4,13.6,5c1.2,1.6,1.8,3.3,1.9,5.3c0.1,1.8,0.6,3.5,1.7,4.9
		c0.5,0.6,0.8,1.3,1.3,2c0.4,0.6,0.1,0.9-0.5,1c-0.7,0.1-1.3,0-2,0.1c-0.3,0-0.7,0.1-0.8,0.4c-0.1,0.4,0.2,0.5,0.5,0.8
		c0.3,0.3,1,0.4,0.8,0.9c-0.2,0.4-0.7,0.2-1.1,0.3c-1.4,0.3-2.8,0.1-4.2,0.2c-0.3,0-0.6-0.2-0.7,0.2c-0.1,0.3,0.2,0.5,0.4,0.7
		c1,0.9,2.3,1,3.6,1.3c0.5,0.1,1.2-0.1,1.3,0.6c0.1,0.6-0.4,1.1-0.8,1.4c-0.5,0.4-1,0.7-1.6,1c-2.9,1.5-4.3,3.9-4.5,7
		c-0.1,2.3-0.2,4.5,0.8,6.9c-1.3,0-2.4,0-3.5,0c-1,0.2-2,0-3.1,0.2c-0.5,0.1-0.9-0.3-1.3-0.6C10.3,58.2,8.1,56,7,53
		c-1.4-3.8-2.6-7.7-3.2-11.8c-0.4-2.6-0.5-5.2,0.8-7.6c0.6-1.3,0.9-1.4,2.2-0.9c2.7,1,5.3,0.5,7.8-0.4c2.1-0.8,3.3-2.9,3-4.7
		c-0.4-2.2-2-3.7-4.4-4c-1.5-0.1-2.9,0.1-4.3,0.5c-1,0.4-2.1,0.8-3.1,1.3c-2.7,1.2-3.3,3.4-1.5,5.8c0.3,0.5,0.5,0.9,0.2,1.5
		c-1.6,3-1.6,6.2-1,9.4c0.7,4,1.9,7.9,3.3,11.6c0.9,2.4,2.6,4.3,4.5,6C11.7,59.8,12.2,60,12.1,60.7z"/>
	<path class="st1" d="M66.1,60.2c-2.1-0.1-4.1-0.3-6.2-0.4c-0.8,0-1.1-0.3-0.8-1.2c0.6-2.2,1.2-4.5,0.9-6.9
		c-0.5-3.4-2.3-5.1-5.7-5.3c-1.3-0.1-2.5-0.4-3.6-1.2c-0.4-0.3-0.8-0.6-0.6-1.1c0.2-0.5,0.7-0.4,1.1-0.4c1.1,0,2.1-0.2,3.1-0.6
		c0.4-0.2,0.9-0.3,1.1-0.9c-2.2-0.4-4.4,0-6.6-0.8c0.1-0.2,0.2-0.3,0.2-0.4c0.4-0.4,1.2-0.7,0.9-1.5c-0.2-0.7-1-0.3-1.5-0.4
		c-0.7-0.1-1.2-0.2-0.5-1c1.6-2,2-4.5,2.3-6.9c0.6-5.1,3.3-8.1,8.4-9.2c2.8-0.6,5.7-0.9,8.6-0.2c3.8,0.9,6.1,3.5,7.6,6.8
		c1.4,3.1,1.4,6.3,0.9,9.6c-1,5.9-2,11.8-1.7,17.8c0.1,1.6,0.4,3.1,0.9,4.7c-2.6-0.2-5.1-0.3-7.5-0.5c-0.2-0.8,0.3-1.4,0.7-2.1
		c3.2-6.3,4.3-13.1,4.7-20.1c0.1-1.7-0.3-3.4-1.1-4.9c-0.4-0.8-0.3-1.4,0.2-2.1c1.4-1.9,1.1-3.6-0.8-4.8c-2.4-1.5-5-2.6-7.9-2.4
		c-3,0.2-5,2.8-4.2,5.6c0.5,1.8,2,2.7,3.6,3.2c2.2,0.6,4.5,1,6.8,0.1c0.9-0.4,1.6,0,2,0.8c0.9,1.7,1.2,3.6,1,5.5
		c-0.5,5.3-1.2,10.7-3.2,15.7c-0.6,1.4-1.2,2.9-2,4.3C66.9,59.5,66.7,60,66.1,60.2z"/>
	<path class="st0" d="M66.1,60.2c3.2-5.3,4.7-11.1,5.5-17.1c0.3-2.4,0.8-4.7,0.2-7.1c-0.1-0.4-0.2-0.8-0.3-1.2
		c-0.7-2.1-0.7-2.1-2.8-1.5c-2.9,0.9-5.5,0.2-8.1-1.1c-1.9-1-2.7-3.1-2.2-5.1c0.5-1.9,2.3-3.4,4.4-3.6c3.1-0.3,5.8,0.9,8.4,2.4
		c2.1,1.3,2.3,3.6,0.7,5.4c-0.5,0.5-0.5,0.9-0.2,1.5c1.3,2.3,1.4,4.9,1.2,7.4c-0.4,3.5-0.9,7-1.8,10.4c-0.8,3.3-2.3,6.4-3.8,9.5
		c-1.2,1.7-2.4,3.5-4.4,4.6c-2.4,1.2-4.7,0.7-7-0.2c-2.2-0.9-4.2-2.2-6.6-2.8c-2.2-0.6-4.4-0.1-6.6,0.2c-2,0.3-4,1-5.9,1.8
		c-0.8,0.3-0.9,0.7-0.2,1.3c2,2.1,2.8,4.7,2.9,7.5c0,1.3,0.2,2.6,0,3.9c-0.2,2-1.6,4.2-4.4,2.9c-0.4-0.2-0.8-0.2-1.2-0.1
		c-2.5,0.2-3.9-0.6-4.4-3.1c-0.7-3.7-0.1-7.1,2.4-10c0.6-0.7,1.2-1.4,1.8-2.1c-2-1.4-4.6-1.9-7.1-1.1c-5.2,1.7-9.9,0.9-14.3-2.1
		c-0.1-0.1-0.2-0.1-0.3-0.2c-2-1.9-4.2-3.6-5.2-6.3c-2.1-5.1-3.7-10.3-4-15.8c-0.1-2.1,0.3-4.2,1.4-6.1c0.2-0.4,0.4-0.7,0-1.2
		c-2-2.2-1.7-4.6,0.9-6c2.4-1.3,4.9-2.4,7.7-2.2c1.6,0.1,3,0.5,4,1.8c2.4,3.1,0.7,7.2-3.4,8c-2.5,0.5-5,0.9-7.5-0.3
		c-0.7-0.3-0.8,0.2-1,0.6c-1.3,2.3-1.4,4.9-1,7.3C4.7,45.4,6,50,8,54.3c1.1,2.5,3.2,4.2,5.4,5.9c0.3,0.3,0.8,0.3,1.2,0.3
		c0.9,0,1.7,0,2.6,0c-0.8,0.4-1.7,0-2.7,0.4c2.1,1.3,4.2,1.8,6.5,2.1c2.2,0.2,4.2-0.6,6.3-1c2.6-0.5,5,0,7.2,1.3
		c0.6,0.4,1,0.3,1.6,0c2.8-1.4,5.8-2,8.8-2.5C49,60,52.4,61.8,56,63.4c1.8,0.8,3.6,1.6,5.7,0.9C63.7,63.5,65,61.9,66.1,60.2z"/>
	<path class="st2" d="M60.2,88.3c0-2.1,0-4.2,0-6.3c0-0.6-0.1-1.2,0.8-1.2c0.8,0,0.7,0.6,0.7,1.2c0,2.9,0,5.9,0,8.8
		c0,0.5,0.2,1.1-0.6,1.1c-0.6,0-1.2,0.1-1.5-0.7c-0.8-2.2-1.8-4.3-3-6.5c0,1.6,0,3.3,0,4.9c0,0.5,0,1,0,1.5c0,0.6-0.3,0.8-0.9,0.8
		c-0.6,0-0.8-0.3-0.8-0.8c0-3.1,0-6.3,0-9.4c0-0.5,0.2-0.8,0.7-0.8c0.7-0.1,1.2,0.1,1.5,0.8c0.8,2,1.6,4,2.5,5.9
		C59.7,87.7,59.8,88.1,60.2,88.3z"/>
	<path class="st3" d="M5.8,69.6c0-0.3,0-0.7,0-1c0-0.5,0.4-0.7,0.8-0.7c0.5,0,0.8,0.2,0.8,0.7c0,3.2,0,6.4,0,9.6
		c0,0.4-0.3,0.7-0.7,0.7c-0.7,0.1-1.2-0.1-1.5-0.8c-0.8-2-1.6-4-2.5-5.9c-0.1-0.3-0.3-0.6-0.5-1.1c0,2.4,0,4.6,0,6.7
		c0,0.6,0,1.1-0.8,1.1c-0.8,0-0.8-0.6-0.8-1.1c0-2.9,0-5.9,0-8.8c0-0.5-0.2-1.1,0.6-1.1c0.6-0.1,1.2-0.1,1.5,0.7
		c0.8,2.1,1.8,4.3,2.7,6.4c0.3,0.1,0.3-0.1,0.3-0.3C5.8,73,6,71.3,5.8,69.6z"/>
	<path class="st3" d="M50.8,73.4c0-1.5,0-3,0-4.6c0-0.6,0.1-0.9,0.8-0.9c0.7,0,1.5,0,2.2,0c1.5,0.1,2.5,0.7,2.9,1.9
		c0.5,1.5,0.2,3.2-0.9,4.1c-0.6,0.4-0.7,0.8-0.3,1.4c0.5,0.8,0.6,2,1.9,2.3c0.4,0.1,0.4,0.6,0.3,1c-0.1,0.4-0.4,0.5-0.8,0.5
		c-1,0-1.6-0.6-2-1.4c-0.4-0.8-0.8-1.6-1.2-2.5c-0.2-0.4-0.4-0.6-0.8-0.5c-0.5,0.1-0.4,0.5-0.4,0.8c0,0.9,0,1.8,0,2.7
		c0,0.5-0.2,0.9-0.8,0.9c-0.7,0-0.9-0.3-0.8-0.9c0,0,0-0.1,0-0.1C50.8,76.4,50.8,74.9,50.8,73.4z"/>
	<path class="st4" d="M37.4,86.3c0-1.6,0-3.1,0-4.7c0-0.6,0.2-0.9,0.9-0.9c1,0.1,2.1-0.1,3.1,0.1c1.5,0.3,2.4,1.2,2.5,2.8
		c0.1,1.8,0.1,3.5,0,5.3c-0.1,1.5-1,2.6-2.5,2.8c-1.1,0.1-2.2,0-3.3,0.1c-0.6,0-0.6-0.4-0.6-0.8C37.4,89.4,37.4,87.9,37.4,86.3z"/>
	<path class="st4" d="M19.9,86.2c0-1.5,0-3,0-4.6c0-0.5,0.1-0.9,0.7-0.9c1.1,0.1,2.1-0.1,3.2,0.1c1.5,0.3,2.4,1.3,2.4,2.8
		c0.1,1.8,0.1,3.5,0,5.3c-0.1,1.6-1.1,2.6-2.6,2.8c-1,0.1-2.1,0-3.1,0c-0.7,0-0.7-0.5-0.7-0.9C19.9,89.4,19.9,87.8,19.9,86.2z"/>
	<path class="st4" d="M70.3,86.3c0,0.9,0.1,1.8,0,2.7c-0.2,1.8-1.3,2.8-3.1,2.9c-2,0-3.1-0.8-3.3-2.7c-0.3-2-0.3-3.9,0-5.9
		c0.3-1.8,1.3-2.6,3.1-2.6c1.8,0,2.9,0.8,3.3,2.5C70.4,84.3,70.3,85.3,70.3,86.3C70.3,86.3,70.3,86.3,70.3,86.3z"/>
	<path class="st4" d="M18,73.9c0,0.7,0.1,1.7-0.1,2.8c-0.4,1.5-1.3,2.3-2.9,2.3c-1.7,0.1-2.9-0.6-3.3-2c-0.5-2.3-0.5-4.8,0-7.1
		c0.3-1.5,1.5-2.1,3.2-2.1c1.6,0.1,2.6,0.8,2.9,2.3c0.1,0.2,0.1,0.5,0.1,0.7C18,71.8,18,72.6,18,73.9z"/>
	<path class="st3" d="M67.6,73.5c0,0.9,0,1.7,0,2.6c-0.1,1.8-1.2,2.8-2.9,2.9c-2,0.1-3.4-0.8-3.5-2.6c-0.2-2-0.2-4,0-5.9
		c0.1-1.8,1.5-2.7,3.5-2.6c1.7,0.1,2.8,1.2,2.9,2.9C67.7,71.7,67.6,72.6,67.6,73.5z"/>
	<path class="st4" d="M13.1,85.2c0,1.2,0,2.4,0,3.6c0,1,0.5,1.6,1.6,1.6c1.1,0,1.6-0.7,1.6-1.6c0.1-2.2,0-4.5,0.1-6.7
		c0-0.6-0.1-1.2,0.8-1.3c1,0,0.9,0.7,0.9,1.3c0,2,0,4,0,6.1c-0.1,2.4-1.2,3.7-3,3.8c-1.8,0.1-3-0.8-3.3-2.6
		c-0.5-2.6-0.1-5.2-0.2-7.8c0-0.5,0.3-0.7,0.8-0.7c0.5,0,0.9,0.2,0.9,0.8C13.1,82.8,13.1,84,13.1,85.2
		C13.1,85.2,13.1,85.2,13.1,85.2z"/>
	<path class="st3" d="M35.7,91.2c0,0.4-0.1,0.6-0.6,0.6c-0.5,0-0.9,0-1.1-0.6c-0.2-0.7-0.4-1.3-0.5-2c-0.1-0.7-0.4-0.8-1.1-0.8
		c-2.3,0-2.3-0.1-2.9,2.3c-0.2,0.6-0.2,1.2-1.1,1.2c-0.5,0-0.8-0.2-0.6-0.8c0.9-3.2,1.8-6.5,2.8-9.7c0.2-0.7,0.8-0.6,1.3-0.6
		c0.5,0,0.9,0,1.1,0.6c0.9,3.2,1.8,6.4,2.7,9.6C35.6,91.1,35.7,91.1,35.7,91.2z"/>
	<path class="st3" d="M24.3,67.9c1.6,0,2.7,0.8,3.1,2.2c0.1,0.4,0.2,0.8-0.4,1c-0.5,0.2-1,0.2-1.2-0.4c-0.3-0.9-1-1.3-1.9-1.1
		c-0.5,0.1-1,0.4-1.1,1c-0.1,0.6,0.1,1.1,0.7,1.5c0.8,0.4,1.7,0.9,2.5,1.3c1.4,0.8,1.9,2.1,1.5,3.7c-0.4,1.3-1.6,2.1-3.2,2.1
		c-1.6,0-2.8-0.9-3.1-2.3c-0.1-0.5-0.4-1.2,0.4-1.4c0.8-0.2,1,0.3,1.1,0.9c0.2,0.9,0.8,1.3,1.7,1.2c0.8,0,1.3-0.4,1.5-1.2
		c0.2-0.9-0.3-1.4-1-1.8c-0.7-0.4-1.4-0.7-2.1-1.1c-1.4-0.8-2-2-1.6-3.5C21.6,68.6,22.7,67.8,24.3,67.9z"/>
	<path class="st3" d="M49.4,88.5c-1.6-0.5-1.9,0.4-2.2,1.6c-0.1,0.6,0.1,1.7-1.1,1.7c-0.6,0-0.9-0.2-0.7-0.8
		c0.9-3.2,1.8-6.4,2.7-9.6c0.2-0.7,0.8-0.7,1.4-0.7c0.6,0,0.9,0.2,1.1,0.8c0.8,3.1,1.7,6.2,2.6,9.2c0.1,0.4,0.4,0.9-0.3,1
		c-0.5,0.1-1.1,0.1-1.3-0.6c-0.1-0.4-0.2-0.9-0.3-1.3C51.1,88.8,50.7,88,49.4,88.5z"/>
	<path class="st3" d="M74.4,79c-1.8,0-2.9-1-3.2-2.6c-0.1-0.5-0.2-1,0.5-1.1c0.6-0.1,1,0,1.1,0.8c0.2,1.3,1.6,1.8,2.6,1.1
		c0.9-0.6,0.9-1.9-0.1-2.6c-0.8-0.5-1.7-0.9-2.5-1.3c-1.3-0.7-1.8-1.9-1.4-3.4c0.3-1.2,1.3-2,2.7-2.1c1.7-0.1,2.8,0.5,3.3,1.8
		c0.2,0.5,0.4,1.1-0.3,1.4c-0.6,0.2-1,0-1.2-0.6c-0.2-0.8-0.9-1-1.7-1c-0.6,0.1-1.2,0.4-1.3,1.1c-0.1,0.8,0.3,1.3,1,1.6
		c0.7,0.3,1.3,0.7,2,1c1.5,0.8,2.1,2.1,1.7,3.6C77.2,78.2,76.1,79.1,74.4,79z"/>
	<path class="st3" d="M75,91.9c-1.8,0-3.1-1-3.2-2.6c-0.1-0.5-0.2-1,0.6-1.1c0.6-0.1,0.9,0.2,1,0.8c0.2,1,0.8,1.5,1.9,1.4
		c0.7-0.1,1.2-0.5,1.4-1.2c0.2-0.7-0.1-1.3-0.7-1.7c-0.8-0.5-1.6-0.8-2.4-1.3c-1.3-0.7-1.9-2-1.6-3.3c0.3-1.4,1.3-2.2,2.7-2.3
		c1.8-0.1,2.9,0.5,3.4,1.9c0.2,0.4,0.5,1-0.2,1.3c-0.6,0.2-1.1,0.2-1.3-0.6c-0.3-0.9-1-1.1-1.9-0.9c-0.8,0.2-1.1,0.7-1,1.4
		c0,0.5,0.3,0.8,0.7,1c0.8,0.4,1.5,0.8,2.3,1.2c1.5,0.8,2,2,1.7,3.6C77.9,91.1,76.7,91.9,75,91.9z"/>
	<path class="st3" d="M0,86.3c0-0.9-0.1-1.8,0-2.7c0.1-1.6,1.3-2.8,2.8-2.9C4.8,80.6,6,81.4,6.4,83c0.1,0.5,0.1,0.9-0.5,1.1
		c-0.6,0.2-0.9,0-1-0.5c-0.3-1.1-1-1.4-2-1.2c-1.1,0.2-1.3,1-1.3,1.9c0,1.4,0,2.8,0,4.2c0,1,0.3,1.8,1.5,1.9
		c1.2,0.1,1.7-0.6,1.9-1.6c0.1-0.6,0.3-0.9,0.9-0.9c0.8,0,0.7,0.6,0.6,1.1c-0.1,1.8-1.2,2.9-3.1,3c-2,0-3.2-1-3.3-2.9
		C0,88.1,0,87.2,0,86.3z"/>
	<path class="st4" d="M44.9,74.3c0,1.2,0,2.4,0,3.6c0,0.5,0.1,1.1-0.7,1.1c-0.8,0-0.8-0.5-0.8-1.1c0-2.4,0-4.8,0-7.1
		c0-1-0.2-1.4-1.2-1.2c-0.4,0-0.8,0.1-1.1-0.2c-0.3-0.2-0.2-0.6-0.2-0.9c0-0.5,0.4-0.5,0.8-0.5c1.6,0,3.3,0,4.9,0
		c0.6,0,0.8,0.3,0.9,0.8c0,0.6-0.3,0.8-0.9,0.8c-0.2,0-0.4,0-0.6,0c-1-0.2-1.2,0.3-1.1,1.2C44.9,71.9,44.9,73.1,44.9,74.3z"/>
	<path class="st5" d="M9.9,86.4c0,1.5,0,3,0,4.4c0,0.6-0.1,1-0.8,1c-0.7,0-0.9-0.4-0.9-1c0-3,0-6,0-9c0-0.6,0.1-1.1,0.9-1.1
		c0.8,0,0.8,0.5,0.8,1.1C9.9,83.4,9.9,84.9,9.9,86.4z"/>
	<path class="st6" d="M5.8,69.6c0.4,2,0,4,0.2,6c-0.4-0.1-0.4-0.3-0.5-0.6c0.5-1.3,0.1-2.6,0.2-3.9C5.8,70.6,5.7,70.1,5.8,69.6z"/>
	<path class="st7" d="M18.6,30.5c0.4-1.2,1.4-1.4,2.5-1.5c1.1-0.1,2,0.2,2.7,1.1c0.1,0.1,0.1,0.3,0,0.3c-0.1,0.2-0.3,0.2-0.4,0.1
		c-0.7-0.6-1.5-1-2.5-0.9C20.1,29.6,19.5,30.3,18.6,30.5z"/>
	<path class="st8" d="M20.8,31c0.4-0.5,0.8,0.1,1.3,0.1c0.6,0.5,1,1.1,0.3,1.8c-0.3,0.2-0.6,0.3-0.9,0.3
		C20.4,32.7,20.4,32.6,20.8,31z"/>
	<path class="st9" d="M20.8,31c0.4,0.2,0.2,0.5,0.1,0.8c-0.2,0.6,0,1,0.6,1.2c0.1,0,0.1,0.1,0.1,0.1c0,0-0.1,0.1-0.1,0.1
		c-0.9,0.1-1.7-0.3-2.6-0.7C19.5,31.9,20.1,31.3,20.8,31z"/>
	<path class="st10" d="M22.3,32.8c0.4-0.7,0-1.2-0.2-1.7c0.8,0,1.2,0.7,1.9,1.1c-0.4,0.5-0.9,0.7-1.4,0.9
		C22.3,33.1,22.3,33,22.3,32.8z"/>
	<path class="st11" d="M22.3,32.8c0.1,0.1,0.2,0.2,0.3,0.3c-0.3,0.3-0.7,0.2-1,0.2c0-0.1,0-0.1,0-0.2C21.8,32.9,22.1,32.9,22.3,32.8
		z"/>
	<path class="st12" d="M55.7,32.2c0.7,0.2,1.1,0.7,1.7,1.2c-0.6,0.6-1.2,0.8-2,0.9c-0.1,0.1-0.2,0.1-0.3,0c0.1-0.7-0.3-1.4,0.1-2.1
		C55.4,32.1,55.6,32.1,55.7,32.2z"/>
	<path class="st13" d="M54,34.3c-0.5-0.1-0.9-0.2-1.4-0.6c0.4-0.6,0.9-1,1.5-1.4c0.2,0,0.3,0.1,0.4,0.3c-0.1,0.6,0.1,1.1-0.1,1.7
		C54.2,34.3,54.1,34.3,54,34.3z"/>
	<path class="st14" d="M52.3,31.1c0.5,0.2,0.5,0.7,0.6,1.1c0.1,0.2-0.1,0.5-0.3,0.4c-0.5-0.2-0.5-0.7-0.6-1.1
		C51.9,31.3,52,31.1,52.3,31.1z"/>
	<path class="st15" d="M56.4,30.5c-0.2,0.3,0,0.9-0.6,1c-0.3,0-0.4-0.3-0.2-0.5c0.2-0.3,0-1,0.6-1C56.5,30,56.4,30.3,56.4,30.5z"/>
	<path class="st16" d="M57.3,32.6c-0.2-0.7,0.1-1.1,0.5-1.5c0.1-0.1,0.3,0,0.3,0.2C58.2,31.9,57.8,32.2,57.3,32.6z"/>
	<path class="st17" d="M54,30.1c0.4,0.2,0.3,0.6,0.4,0.9c0.1,0.2-0.1,0.5-0.3,0.4c-0.4-0.1-0.4-0.6-0.4-0.9
		C53.6,30.3,53.7,30.1,54,30.1z"/>
	<path class="st18" d="M54.1,32.5c0-0.1-0.1-0.1-0.1-0.2c0.6-0.6,1.1-0.4,1.8-0.1c-0.2,0-0.4,0-0.5,0C54.9,32.5,54.6,32.8,54.1,32.5
		z"/>
	<path class="st19" d="M54,34.3c0.1,0,0.2,0,0.3,0c0.3-0.3,0.7-0.3,1,0c0.1,0,0.2,0,0.2,0C55,34.6,54.5,34.6,54,34.3z"/>
	<path class="st20" d="M34.8,68.1c0.1,0,0.4,0.1,0.7,0.2c2.5,0.9,3.7,4.5,2.3,6.8c-0.6,1-1.4,2-2.4,2.6c-0.4,0.2-0.7,0.3-1.1-0.1
		c-1.3-1.3-2.3-2.7-3.2-4.3C29.8,70.9,31.9,68.4,34.8,68.1z"/>
	<path class="st3" d="M6.2,31.4c1.3,0.1,2.5-0.1,3.7-0.3c1.1-0.2,1.6-0.9,1.4-1.9c-0.2-1.1-1.2-1.9-2.2-1.7c-1.2,0.2-2,1-2.8,1.9
		c-0.2,0.3-0.3,0.8-0.8,0.5c-0.4-0.2-0.4-0.6-0.3-1c0.1-1.2,1.7-2.6,3.3-2.7c1.3-0.1,2.6,0.1,3.9,0.3c1.4,0.3,2.1,1.2,2.1,2.5
		c0.1,1.2-0.3,2.3-1.5,2.8c-2.2,1-4.4,1-6.5,0C6.4,31.7,6.4,31.6,6.2,31.4z"/>
	<path class="st3" d="M69.6,31.7c-2.3,1.3-4.5,1.3-6.8,0c-1.2-0.7-1-1.9-1-3.1c0-1,0.7-1.5,1.5-1.7c2.1-0.5,4.2-1,6.2,0.4
		c0.7,0.5,1.1,1.1,1.2,1.9c0,0.3,0,0.7-0.4,0.8c-0.5,0.2-0.5-0.2-0.7-0.4c-0.8-1-1.6-1.9-3-1.9c-1.1,0.1-1.7,0.6-1.8,1.8
		c-0.1,1,0.5,1.5,1.4,1.7C67.4,31.6,68.5,31.4,69.6,31.7z"/>
	<path class="st4" d="M8.9,25.1c2.1-1.4,5.3-1.2,6.7,0c1.6,1.3,2,4.7-0.4,5.7c0-0.8,0.4-1.5,0.3-2.3c-0.5-2.1-1.9-3.2-4.7-3.4
		C10.3,25.1,9.6,25.1,8.9,25.1z"/>
	<path class="st4" d="M67.1,25.2c-4.5,0.7-6.7,0.7-6.2,5.9c-1.3-1.1-1.7-2.4-1.3-3.9c0.4-1.5,1.6-2.4,3.1-2.6
		C64.2,24.4,65.6,24.7,67.1,25.2z"/>
	<path class="st21" d="M37.5,68.2c-1.6-1.1-3.2-1.8-5.3-0.5c0.6-1.4,1.7-2,2.6-2.7c0.3-0.2,0.6-0.1,0.8,0.2
		C36.4,66.1,37.1,67,37.5,68.2z"/>
	<path class="st22" d="M30.3,74.3c0.9,1.2,1.6,2.5,2.8,3.5c0.2,0.1,0.3,0.3,0.2,0.5c-0.1,0.1-0.4,0.2-0.6,0.1
		c-0.7-0.2-1.3-0.5-1.7-1.3C30.6,76.3,30.5,75.3,30.3,74.3z"/>
	<path class="st23" d="M6.9,30.5c0.5-1.1,1.1-1.7,2-2c0.7-0.2,1,0.1,1.2,0.6c0.2,0.7-0.1,0.9-0.7,1C8.7,30.2,7.9,30.3,6.9,30.5z"/>
	<path class="st23" d="M69,30.5c-0.9,0.2-1.7,0-2.4-0.2c-0.4-0.1-0.7-0.3-0.7-0.7c0.1-0.5,0.3-0.8,0.9-0.8
		C67.9,28.8,68.4,29.5,69,30.5z"/>
	<path class="st22" d="M38.7,76.3c-0.4,2.2-0.8,2.6-2.7,2.3c0.9-0.9,1.9-1.6,2.4-2.6C38.6,76,38.7,76,38.7,76.3z"/>
	<path class="st24" d="M4.7,27.3c-0.2,0.4-0.3,0.8-0.6,1.3C3.9,27.8,4.2,27.5,4.7,27.3z"/>
	<path class="st25" d="M72,29.1c-0.2-0.3-0.4-0.5-0.2-0.9C72.2,28.5,72,28.8,72,29.1z"/>
	<path class="st26" d="M71.4,27.5c-0.5-0.1-0.6-0.3-0.8-0.6C71.1,26.9,71.3,27.1,71.4,27.5z"/>
	<path class="st27" d="M38.7,76.3c-0.1-0.1-0.2-0.2-0.3-0.3c0.1-0.2,0.1-0.5,0.4-0.5C38.9,75.8,38.9,76.1,38.7,76.3z"/>
	<path class="st28" d="M52.4,71.3c0.2-0.7-0.5-1.9,1.1-1.8c1.4,0.1,1.8,0.4,1.8,1.7c0,1.3-0.6,1.8-1.9,1.8
		C51.8,73.1,52.7,71.9,52.4,71.3z"/>
	<path class="st20" d="M39.1,86.3c0-0.9,0-1.7,0-2.6c0-0.5-0.4-1.2,0.5-1.3c0.9-0.1,2-0.4,2.5,0.8c0.2,0.4,0.3,0.9,0.3,1.4
		c0,1.3,0,2.6,0,3.8c-0.1,1.4-1.5,2.3-2.8,1.9c-0.4-0.2-0.4-0.5-0.4-0.8C39.1,88.5,39.1,87.4,39.1,86.3z"/>
	<path class="st20" d="M21.5,86.4c0-0.9-0.1-1.7,0-2.6c0-0.5-0.4-1.3,0.5-1.4c0.9-0.1,1.9-0.3,2.4,0.7c0.2,0.4,0.3,0.9,0.3,1.3
		c0,1.2,0,2.5,0,3.7c0,1.7-1.1,2.5-2.7,2.2c-0.5-0.1-0.5-0.4-0.5-0.8C21.5,88.5,21.5,87.4,21.5,86.4z"/>
	<path class="st20" d="M68.6,86.3c0,0.8,0,1.6,0,2.5c0,1-0.6,1.5-1.5,1.6c-1,0.1-1.7-0.5-1.7-1.5c-0.1-1.7-0.1-3.4,0-5.1
		c0-1,0.7-1.6,1.7-1.5c1,0.1,1.5,0.6,1.5,1.6C68.7,84.7,68.6,85.5,68.6,86.3z"/>
	<path class="st20" d="M16.4,73.4c0,0.9,0,1.7,0,2.6c-0.1,1-0.7,1.6-1.7,1.5c-1,0-1.5-0.6-1.5-1.6c0-1.7,0-3.4,0-5.1
		c0-1,0.7-1.5,1.6-1.5c0.9,0,1.5,0.5,1.6,1.4C16.4,71.6,16.4,72.5,16.4,73.4C16.4,73.4,16.4,73.4,16.4,73.4z"/>
	<path class="st29" d="M66.1,73.5c0,0.7,0,1.5,0,2.2c-0.1,1-0.5,1.8-1.6,1.8c-1.1,0-1.7-0.7-1.7-1.7c-0.1-1.6-0.1-3.2,0-4.8
		c0.1-1,0.7-1.7,1.8-1.6c1.1,0.1,1.5,0.8,1.6,1.7C66.1,71.9,66.1,72.7,66.1,73.5C66.1,73.5,66.1,73.5,66.1,73.5z"/>
	<path class="st9" d="M31.7,82.8c0.7,1.3,0.8,2.6,1.1,3.7c0.1,0.5-0.2,0.4-0.5,0.5c-1.6,0.2-1.8,0.1-1.4-1.5
		C31.1,84.6,31.4,83.8,31.7,82.8z"/>
	<path class="st30" d="M49.4,82.9c0.3,1.1,0.6,2.1,0.8,3.2c0.1,0.2,0.4,0.7-0.1,0.7c-0.6,0.1-1.2,0.1-1.8,0
		c-0.4-0.1-0.1-0.5-0.1-0.7c0.3-1.1,0.6-2.1,0.9-3.2C49.2,82.9,49.3,82.9,49.4,82.9z"/>
	<path class="st5" d="M55.2,34.2c-0.3,0-0.7,0-1,0c-0.4-0.5-0.3-1.1-0.1-1.7c0.3-0.1,0.7-0.3,1.1-0.3C55.4,32.9,55.8,33.6,55.2,34.2
		z"/>
</g>
</svg>